<svg viewBox="0 0 150 150" xmlns="http://www.w3.org/2000/svg"><path d="m57 94 9 10.8.2.2 6.1 8.2 8.8-7.9 10.2 12 7.1-5.5 3.9 4.7-3.2 3.5 3.8 4.5 4-3 4.4 5-7.4 6.1 6.8 7.5 19.5 1.1 5.3-17.7-3.6-4.2-28-32.7 10.3-7.9-14.4-16.2c1.3-2.3 2.4-5.7 1.2-9.7-3.9 3.7-9.1 6.6-16 7.1-3.7.1-8.3-.5-11.7-3.1-3.1-2.4-5.5-5.9-5.4-11.5.2-3.3 1.4-7 4.3-8.3 3.1-.9 4.3 1.7 6.1 2.9 4 2.6 7.4 0 8.4-2.9 1.1-3.1-.1-7.4-3.9-9-3.1-.8-6-1-10.2 1.4-2.7 1.5-4.7 1.1-7-.3-3.4-2.1-6.5-5.1-8.1-9.1v-.4c-5.3.6-12.6 2.8-21 8.2-8.7 6-17.9 17.2-20.9 25.6-1.1 3.4-1.6 8.7 2.4 13.3 6 5.9 14.4 4.6 21.9 5.8 5.3.5 11.4 3.7 12.8 9.7.8 4.3 1.3 7.8 4.3 11.8z"/><path stroke="#fff" d="m89.9 10.5c-3.3-1.5-5.9-1.9-9.9-1.9-6 0-11 2.3-15 5.4-3.5 3-4.3 4-2 6.4 2 2 3.7 3.6 4.8 4.4 2.4 1.1 2.9.2 5-.8 3.2-1.4 7-2 11-.6 2.9 1 7.9 4.6 7.9 11.1.3 7.3-6.5 12.8-13.1 10.3-1.9-.7-3.6-1.8-5.2-3.5-.8 1.8-1.1 3.8-.3 6.5 3.8 7.7 15.8 9.7 24.2 2.2 4-3.6 7.1-9.5 7.1-16.9 0-11.1-7.3-19.2-14.5-22.6z"/></svg>